<?xml version="1.0" standalone="no"?>
<!DOCTYPE svg PUBLIC "-//W3C//DTD SVG 20010904//EN"
 "http://www.w3.org/TR/2001/REC-SVG-20010904/DTD/svg10.dtd">
<svg version="1.0" xmlns="http://www.w3.org/2000/svg"
 width="240.000000pt" height="48.000000pt" viewBox="0 0 240.000000 48.000000"
 preserveAspectRatio="xMidYMid meet">

<g transform="translate(0.000000,48.000000) scale(0.100000,-0.100000)"
fill="#000000" stroke="none">
<path d="M218 449 c-25 -14 -24 -65 2 -79 29 -16 25 -47 -9 -64 -30 -16 -41
-34 -41 -67 0 -25 -58 -42 -81 -23 -8 8 -22 14 -30 14 -36 0 -53 -56 -24 -80
20 -17 62 -5 70 20 9 27 70 38 94 16 10 -9 30 -16 44 -16 33 0 36 -23 10 -70
-18 -31 -18 -31 10 -56 34 -29 51 -30 77 -4 34 34 20 75 -32 93 -22 8 -23 30
-3 61 18 27 51 25 60 -5 9 -27 43 -34 66 -13 25 22 24 39 -2 58 -16 11 -28 12
-50 4 -36 -12 -59 -5 -59 20 0 20 -29 52 -48 52 -19 0 -14 45 8 65 25 23 26
47 2 68 -21 19 -39 21 -64 6z m27 -9 c-3 -5 -11 -10 -16 -10 -6 0 -7 5 -4 10
3 6 11 10 16 10 6 0 7 -4 4 -10z m-27 -170 c-7 -10 -14 -17 -17 -15 -4 4 18
35 25 35 2 0 -1 -9 -8 -20z m66 -206 c5 -14 4 -15 -9 -4 -17 14 -19 20 -6 20
5 0 12 -7 15 -16z"/>
<path d="M1227 331 c-31 -55 -57 -112 -57 -126 0 -24 2 -25 70 -25 l70 0 0
-35 c0 -32 2 -35 30 -35 28 0 30 3 30 35 0 28 4 35 20 35 27 0 27 40 0 47 -17
5 -20 15 -22 102 l-3 96 -40 3 -40 3 -58 -100z m83 -31 l0 -70 -44 0 -45 0 40
70 c23 39 43 70 45 70 2 0 4 -31 4 -70z"/>
</g>
</svg>
