<?xml version="1.0" encoding="UTF-8"?>
<svg xmlns="http://www.w3.org/2000/svg" xmlns:xlink="http://www.w3.org/1999/xlink" width="24px" height="24px" viewBox="0 0 24 24" version="1.1">
<g id="surface1">
<path style=" stroke:none;fill-rule:nonzero;fill:rgb(0%,0%,0%);fill-opacity:1;" d="M 11.667969 3.191406 C 11.859375 4.429688 12.425781 6.332031 12.953125 7.378906 L 13.90625 9.285156 L 12.570312 8.046875 C 11.808594 7.335938 10.476562 6.425781 9.570312 5.953125 C 7.8125 5.046875 2.859375 4.378906 2.859375 5.046875 C 2.859375 5.289062 3.285156 6.191406 3.808594 7.046875 C 4.953125 8.90625 8.046875 10.429688 10.664062 10.476562 C 12.476562 10.476562 12.476562 10.523438 11.714844 11.382812 C 11.046875 12.140625 10.664062 12.191406 9.570312 11.765625 C 4.570312 9.902344 -0.476562 17.667969 3.285156 21.476562 C 5 23.191406 6.859375 23.289062 9.09375 21.761719 C 11.90625 19.90625 13 16.476562 11.714844 13.335938 C 11.289062 12.332031 14.667969 10.1875 18.191406 9.140625 C 19.714844 8.714844 20.953125 8.191406 20.953125 7.953125 C 20.953125 7.429688 19.523438 7.570312 17.523438 8.289062 L 15.808594 8.90625 L 15.859375 6.902344 C 15.953125 4.476562 15 2.523438 13.238281 1.621094 C 11.382812 0.667969 11.289062 0.710938 11.667969 3.191406 Z M 14.574219 4.621094 C 15.09375 5.859375 15.191406 6.617188 14.859375 7.335938 C 14.429688 8.289062 14.332031 8.191406 13.621094 6.570312 C 12.761719 4.523438 12.617188 2.859375 13.378906 2.859375 C 13.621094 2.859375 14.191406 3.617188 14.574219 4.621094 Z M 7.90625 6.425781 C 9.234375 6.808594 10.8125 7.664062 11.429688 8.332031 L 12.523438 9.523438 L 10.664062 9.523438 C 8.476562 9.523438 5.808594 8.289062 4.855469 6.761719 C 4 5.476562 4.476562 5.382812 7.90625 6.425781 Z M 10.238281 13.570312 C 12.191406 15.476562 11.523438 18.761719 8.765625 20.90625 C 7.09375 22.238281 5.476562 22.1875 4.046875 20.714844 C 2.097656 18.808594 2.765625 15.523438 5.523438 13.378906 C 7.1875 12.046875 8.808594 12.09375 10.238281 13.570312 Z M 10.238281 13.570312 "/>
<path style=" stroke:none;fill-rule:nonzero;fill:rgb(0%,0%,0%);fill-opacity:1;" d="M 5.429688 15 C 5.046875 15.617188 4.855469 16.429688 5.046875 16.714844 C 5.289062 17.140625 5.523438 16.953125 5.808594 16.238281 C 6 15.617188 6.617188 15.046875 7.144531 14.90625 C 8.382812 14.574219 8.382812 13.8125 7.144531 13.8125 C 6.617188 13.8125 5.859375 14.332031 5.429688 15 Z M 5.429688 15 "/>
<path style=" stroke:none;fill-rule:nonzero;fill:rgb(0%,0%,0%);fill-opacity:1;" d="M 15.761719 11.140625 C 12.476562 12.953125 12.570312 18.234375 16 20.90625 C 17.476562 22.09375 18.617188 22.144531 20.429688 21.234375 C 23.765625 19.523438 23.617188 14.191406 20.191406 11.476562 C 18.761719 10.335938 17.382812 10.238281 15.761719 11.140625 Z M 20.140625 12.667969 C 23.574219 16.09375 21.285156 22.1875 17.238281 20.523438 C 14.332031 19.285156 13.378906 14.191406 15.761719 12.234375 C 17.191406 11.097656 18.710938 11.238281 20.140625 12.667969 Z M 20.140625 12.667969 "/>
<path style=" stroke:none;fill-rule:nonzero;fill:rgb(0%,0%,0%);fill-opacity:1;" d="M 16.285156 13.429688 C 15.234375 14.476562 15.761719 17.140625 17 17.140625 C 17.574219 17.140625 17.617188 17 17.140625 16.429688 C 16.8125 16 16.714844 15.191406 16.90625 14.289062 C 17.238281 12.710938 17.140625 12.570312 16.285156 13.429688 Z M 16.285156 13.429688 "/>
</g>
</svg>
