<?xml version="1.0" encoding="UTF-8"?>
<svg xmlns="http://www.w3.org/2000/svg" xmlns:xlink="http://www.w3.org/1999/xlink" width="24px" height="24px" viewBox="0 0 24 24" version="1.1">
<g id="surface1">
<path style=" stroke:none;fill-rule:nonzero;fill:rgb(0%,0%,0%);fill-opacity:1;" d="M 9.046875 1.90625 C 9.046875 2.429688 8.761719 2.855469 8.382812 2.855469 C 7.90625 2.855469 7.808594 3.382812 8 5 C 8.191406 6.953125 8 7.476562 6 10.523438 C 3.332031 14.523438 2.90625 16.382812 4 19.238281 C 5.285156 22.667969 5.855469 22.90625 11.238281 22.761719 L 15.90625 22.617188 L 17 21 C 18.382812 18.953125 18.855469 16.382812 18.191406 14.570312 C 17.714844 13.332031 17.761719 13.046875 18.808594 12.09375 C 20.285156 10.761719 20.332031 8.90625 19 7.570312 C 18 6.570312 16.617188 6.523438 14.570312 7.382812 C 13.761719 7.761719 13.714844 7.570312 13.90625 5.332031 C 14.09375 3.429688 14 2.855469 13.523438 2.855469 C 13.144531 2.855469 12.855469 2.429688 12.855469 1.90625 C 12.855469 1.09375 12.523438 0.953125 10.953125 0.953125 C 9.382812 0.953125 9.046875 1.09375 9.046875 1.90625 Z M 11.90625 2.382812 C 11.90625 2.617188 11.476562 2.855469 10.953125 2.855469 C 10.429688 2.855469 10 2.617188 10 2.382812 C 10 2.09375 10.429688 1.90625 10.953125 1.90625 C 11.476562 1.90625 11.90625 2.09375 11.90625 2.382812 Z M 12.855469 5.855469 C 12.855469 7.523438 13.285156 8.476562 15 11 L 17.191406 14.046875 L 14.046875 14.191406 C 12.332031 14.285156 9.570312 14.285156 7.855469 14.191406 L 4.714844 14.046875 L 6.90625 11 C 8.617188 8.476562 9.046875 7.523438 9.046875 5.855469 L 9.046875 3.808594 L 12.855469 3.808594 Z M 18.667969 8.855469 C 19.09375 9.714844 19.09375 10.285156 18.714844 10.855469 C 17.90625 12.144531 16.953125 12.046875 15.761719 10.476562 C 14.90625 9.285156 14.808594 8.855469 15.238281 8.285156 C 16.191406 7.191406 18.046875 7.476562 18.667969 8.855469 Z M 17.476562 17.238281 C 17.332031 18.332031 16.808594 19.761719 16.285156 20.429688 C 15.429688 21.617188 15.144531 21.667969 10.953125 21.667969 C 6.761719 21.667969 6.476562 21.617188 5.617188 20.429688 C 5.09375 19.761719 4.570312 18.332031 4.429688 17.238281 L 4.144531 15.238281 L 17.761719 15.238281 Z M 17.476562 17.238281 "/>
</g>
</svg>
